# xmcd
#
# Track frame offsets: 
#        150
#        13125
#        24609
#        44087
#        57486
#        73651
#        88645
#        99870
#        118481
#        130256
#        144254
#        157979
#
# Disc length: 2257 seconds
#
# Revision: 0
# Processed by: cddbd v1.5.2PL0 Copyright (c) Steve Scherf et al.
# Submitted via: ExactAudioCopyFreeDBPlugin 1.0
#
DISCID=a808cf0c
DTITLE=The Stray Bullets - The Stray Bullets
DYEAR=2013
DGENRE=Bluegrass
TTITLE0=Sunday Morning Stomp
TTITLE1=Which Way We Goin'?
TTITLE2=Devil's Door
TTITLE3=Train To New Orleans
TTITLE4=Dead Reckoning
TTITLE5=Don't You Tell me
TTITLE6=Water Running Free
TTITLE7=We Saw The Light
TTITLE8=Leftovers
TTITLE9=No Use Wondering
TTITLE10=Really Into You
TTITLE11=Water Running Free
EXTD=
EXTT0=
EXTT1=
EXTT2=
EXTT3=
EXTT4=
EXTT5=
EXTT6=
EXTT7=
EXTT8=
EXTT9=
EXTT10=
EXTT11=
PLAYORDER=
